<mxfile host="65bd71144e">
    <diagram id="b5maXYyO1dQKqJhPiW1i" name="Page-1">
        <mxGraphModel dx="683" dy="511" grid="1" gridSize="10" guides="1" tooltips="1" connect="1" arrows="1" fold="1" page="1" pageScale="1" pageWidth="827" pageHeight="1169" math="0" shadow="0">
            <root>
                <mxCell id="0"/>
                <mxCell id="1" parent="0"/>
                <mxCell id="Lb6uTjOzr_cah_EgoMXm-6" style="edgeStyle=orthogonalEdgeStyle;rounded=0;orthogonalLoop=1;jettySize=auto;html=1;entryX=0;entryY=0.5;entryDx=0;entryDy=0;fontSize=12;" parent="1" source="Lb6uTjOzr_cah_EgoMXm-1" target="Lb6uTjOzr_cah_EgoMXm-5" edge="1">
                    <mxGeometry relative="1" as="geometry"/>
                </mxCell>
                <mxCell id="Lb6uTjOzr_cah_EgoMXm-1" value="Start" style="ellipse;whiteSpace=wrap;html=1;" parent="1" vertex="1">
                    <mxGeometry x="40" y="120" width="120" height="80" as="geometry"/>
                </mxCell>
                <mxCell id="Lb6uTjOzr_cah_EgoMXm-8" style="edgeStyle=orthogonalEdgeStyle;rounded=0;orthogonalLoop=1;jettySize=auto;html=1;entryX=0;entryY=0.5;entryDx=0;entryDy=0;fontSize=12;" parent="1" source="Lb6uTjOzr_cah_EgoMXm-5" target="Lb6uTjOzr_cah_EgoMXm-7" edge="1">
                    <mxGeometry relative="1" as="geometry"/>
                </mxCell>
                <mxCell id="Lb6uTjOzr_cah_EgoMXm-5" value="&lt;div&gt;Input # of &lt;br&gt;&lt;/div&gt;&lt;div&gt;soccer balls &lt;br&gt;&lt;/div&gt;&lt;div&gt;purchased&lt;br&gt;&lt;/div&gt;" style="shape=parallelogram;perimeter=parallelogramPerimeter;whiteSpace=wrap;html=1;fixedSize=1;fontSize=12;" parent="1" vertex="1">
                    <mxGeometry x="210" y="130" width="120" height="60" as="geometry"/>
                </mxCell>
                <mxCell id="Lb6uTjOzr_cah_EgoMXm-10" value="" style="edgeStyle=orthogonalEdgeStyle;rounded=0;orthogonalLoop=1;jettySize=auto;html=1;fontSize=12;" parent="1" source="Lb6uTjOzr_cah_EgoMXm-7" target="Lb6uTjOzr_cah_EgoMXm-9" edge="1">
                    <mxGeometry relative="1" as="geometry"/>
                </mxCell>
                <mxCell id="Lb6uTjOzr_cah_EgoMXm-7" value="&lt;div&gt;Input cost&lt;/div&gt;&lt;div&gt;per ball&lt;br&gt;&lt;/div&gt;" style="shape=parallelogram;perimeter=parallelogramPerimeter;whiteSpace=wrap;html=1;fixedSize=1;fontSize=12;" parent="1" vertex="1">
                    <mxGeometry x="370" y="130" width="120" height="60" as="geometry"/>
                </mxCell>
                <mxCell id="Lb6uTjOzr_cah_EgoMXm-12" style="edgeStyle=orthogonalEdgeStyle;rounded=0;orthogonalLoop=1;jettySize=auto;html=1;entryX=0.5;entryY=0;entryDx=0;entryDy=0;fontSize=12;" parent="1" source="Lb6uTjOzr_cah_EgoMXm-9" target="Lb6uTjOzr_cah_EgoMXm-11" edge="1">
                    <mxGeometry relative="1" as="geometry"/>
                </mxCell>
                <mxCell id="Lb6uTjOzr_cah_EgoMXm-9" value="Multiply balls purchased times cost per ball" style="rounded=0;whiteSpace=wrap;html=1;fontSize=12;" parent="1" vertex="1">
                    <mxGeometry x="540" y="130" width="120" height="60" as="geometry"/>
                </mxCell>
                <mxCell id="Lb6uTjOzr_cah_EgoMXm-14" style="edgeStyle=orthogonalEdgeStyle;rounded=0;orthogonalLoop=1;jettySize=auto;html=1;entryX=0.5;entryY=0;entryDx=0;entryDy=0;fontSize=12;" parent="1" source="Lb6uTjOzr_cah_EgoMXm-11" target="Lb6uTjOzr_cah_EgoMXm-13" edge="1">
                    <mxGeometry relative="1" as="geometry"/>
                </mxCell>
                <mxCell id="Lb6uTjOzr_cah_EgoMXm-11" value="&lt;div&gt;Display&lt;/div&gt;&lt;div&gt;total cost&lt;/div&gt;" style="shape=parallelogram;perimeter=parallelogramPerimeter;whiteSpace=wrap;html=1;fixedSize=1;fontSize=12;" parent="1" vertex="1">
                    <mxGeometry x="540" y="250" width="120" height="60" as="geometry"/>
                </mxCell>
                <mxCell id="Lb6uTjOzr_cah_EgoMXm-13" value="End" style="ellipse;whiteSpace=wrap;html=1;fontSize=12;" parent="1" vertex="1">
                    <mxGeometry x="540" y="360" width="120" height="80" as="geometry"/>
                </mxCell>
                <mxCell id="Lb6uTjOzr_cah_EgoMXm-15" value="&lt;font style=&quot;font-size: 18px&quot;&gt;Total Cost of Soccer Balls Purchased Calculator&lt;/font&gt;" style="text;html=1;strokeColor=none;fillColor=none;align=center;verticalAlign=middle;whiteSpace=wrap;rounded=0;fontSize=12;" parent="1" vertex="1">
                    <mxGeometry x="200" y="40" width="400" height="30" as="geometry"/>
                </mxCell>
            </root>
        </mxGraphModel>
    </diagram>
</mxfile>